<?xml version="1.0" encoding="utf-8"?>
<!-- Generator: Adobe Illustrator 16.0.0, SVG Export Plug-In . SVG Version: 6.00 Build 0)  -->
<!DOCTYPE svg PUBLIC "-//W3C//DTD SVG 1.1//EN" "http://www.w3.org/Graphics/SVG/1.1/DTD/svg11.dtd">
<svg version="1.1" id="圖層_1" xmlns="http://www.w3.org/2000/svg" xmlns:xlink="http://www.w3.org/1999/xlink" x="0px" y="0px"
	 width="518px" height="119.5px" viewBox="-2.99 -4.78 518 119.5" enable-background="new -2.99 -4.78 518 119.5"
	 xml:space="preserve">
<g>
	<path fill-rule="evenodd" clip-rule="evenodd" stroke-width="1.7008" stroke-linecap="round" d="
		M157.342,106.003c0,1.41,0.112,2.818,0.337,4.209c0.014,0.117,0.036,0.232,0.067,0.348c0.036,0.125,0.079,0.236,0.134,0.332
		c0.078,0.145,0.193,0.266,0.336,0.346c0.244,0.135,0.521,0.207,0.801,0.203c0.059,0,0.117-0.002,0.176-0.008
		c0.157-0.016,0.312-0.047,0.462-0.1c0.199-0.07,0.39-0.168,0.563-0.291c0.077-0.051,0.149-0.109,0.218-0.172
		c0.204-0.18,0.365-0.406,0.467-0.658c0.438-1.443,0.887-2.883,1.343-4.322c0.422-1.328,0.854-2.654,1.294-3.977
		c0.846-2.541,1.71-4.998,2.589-7.375c0.893-2.416,1.805-4.824,2.733-7.227c0.493-1.277,0.994-2.551,1.501-3.82
		c0.553-1.383,1.11-2.762,1.673-4.139c0.001,0,0.001-0.004,0.002-0.004c0.261-0.652,0.536-1.514,0.829-2.584
		c0.293-1.074,0.684-2.117,1.172-3.125c0.479-0.998,1.105-1.918,1.854-2.734c0.749-0.814,1.676-1.318,2.782-1.516
		c0.558-0.102,1.115-0.199,1.675-0.293c1.648-0.273,2.93-0.438,3.844-0.488c0.753-0.039,1.436-0.08,2.049-0.121
		c0.343-0.021,0.686-0.047,1.028-0.072c0.219-0.018,0.438-0.041,0.656-0.074c0.657-0.096,1.303-0.25,1.931-0.463
		c0.25-0.084,0.496-0.176,0.743-0.271c0.567-0.225,1.263-0.529,2.088-0.908c0.442-0.207,0.881-0.414,1.32-0.627
		c1.203-0.602,2.457-1.357,3.76-2.264c1.005-0.703,1.983-1.447,2.929-2.229c0.225-0.184,0.446-0.369,0.666-0.557
		c2.191-1.871,4.238-3.904,6.123-6.083c2.151-2.482,4.064-5.165,5.712-8.009c0.557-0.956,1.065-1.941,1.526-2.947
		c0.827-1.792,1.463-3.67,1.892-5.597c0.294-1.346,0.442-2.668,0.442-3.969c0-1.428-0.183-2.853-0.539-4.235
		c-0.403-1.531-1.098-2.971-2.045-4.242c-0.782-1.049-1.685-2.002-2.691-2.837c-1.103-0.075-2.208-0.11-3.311-0.11
		c-1.864,0-3.726,0.104-5.576,0.305c-2.997,0.327-5.894,0.978-8.693,1.954c-2.785,0.971-5.444,2.282-7.911,3.906
		c-2.494,1.647-4.705,3.694-6.542,6.056c-0.1,0.05-0.161,0.156-0.185,0.324c-0.007,0.056-0.011,0.109-0.01,0.164
		c0,0.041,0.002,0.084,0.005,0.127c0.02,0.198,0.082,0.35,0.189,0.459c0.182,0.303,0.354,0.61,0.516,0.924
		c0.406,0.778,0.725,1.535,0.96,2.271c0.277,0.846,0.439,1.728,0.478,2.616c0.007,0.179,0.01,0.356,0.01,0.537
		c0,0.252-0.005,0.505-0.02,0.759c-0.076,1.402-0.335,2.787-0.771,4.122c-0.587,1.823-1.416,3.695-2.491,5.617
		c-0.413,0.74-0.813,1.484-1.2,2.236c-0.691,1.337-1.349,2.693-1.974,4.06c-0.063,0.133-0.373,0.539-0.928,1.221
		c-0.287,0.357-0.58,0.707-0.879,1.053c-0.32,0.369-0.646,0.736-0.976,1.096c-0.33,0.361-0.655,0.723-0.978,1.088
		c-0.295,0.336-0.589,0.674-0.879,1.014c-0.073,0.086-0.146,0.172-0.218,0.262c-0.407,0.494-0.612,0.799-0.612,0.91
		c-0.225,1.342-0.514,2.674-0.865,3.99c-0.624,2.32-1.411,4.594-2.357,6.801c-1.565,3.686-3.112,7.381-4.638,11.084
		c-1.506,3.633-2.746,7.371-3.712,11.182C157.641,101.376,157.348,103.683,157.342,106.003z M179.749,61.677v3.32
		c1.146,0.229,2.312,0.342,3.479,0.344c1.785-0.002,3.563-0.281,5.262-0.834c2.882-0.936,5.574-2.375,7.959-4.246
		c2.213-1.73,4.206-3.725,5.932-5.939c0.257-0.326,0.511-0.658,0.757-0.994c1.967-2.667,3.651-5.53,5.029-8.544
		c1.21-2.629,2.159-5.37,2.834-8.183c0.067-0.283,0.132-0.567,0.194-0.851c0.255-1.166,0.44-2.345,0.563-3.532
		c0.09-0.885,0.134-1.745,0.134-2.584c0.002-0.746-0.035-1.492-0.11-2.234c-0.882-0.757-1.995-1.187-3.155-1.217
		c-0.039-0.004-0.078-0.004-0.117-0.004c-0.761-0.021-1.471-0.011-2.128,0.029c-0.414,0.024-0.829,0.063-1.242,0.117
		c-1.131,0.143-2.254,0.35-3.36,0.627c-1.107,0.28-2.112,0.619-3.016,1.017c-0.669,0.295-1.312,0.641-1.926,1.041
		c-2.017,1.335-3.662,3.012-4.929,5.03c-0.785,1.257-1.478,2.568-2.073,3.923c-0.443,1.003-0.843,2.023-1.199,3.061
		c-0.479,1.379-0.983,2.752-1.514,4.113c-0.578,1.486-1.182,2.964-1.806,4.431c-0.261,0.455-0.653,1.253-1.174,2.393
		c-0.267,0.586-0.535,1.174-0.805,1.758c-0.285,0.617-0.569,1.234-0.854,1.855c-0.426,0.921-0.848,1.845-1.263,2.773
		c-0.134,0.297-0.267,0.594-0.398,0.887c-0.117,0.264-0.232,0.527-0.349,0.789c-0.257,0.58-0.46,1.039-0.606,1.377
		C179.828,61.491,179.789,61.585,179.749,61.677z"/>
	<path stroke-width="1.7008" stroke-linecap="round" d="M156.508,44.002v-2.149
		c-0.096-0.046-0.198-0.076-0.305-0.09c-0.675-0.095-1.795,0.309-3.36,1.21c-0.113,0.065-0.226,0.132-0.339,0.199
		c-1.388,0.828-2.93,1.871-4.625,3.13c-0.812,0.604-1.614,1.221-2.406,1.85c-1.39,1.103-2.765,2.222-4.126,3.357
		c-1.47,1.226-2.927,2.467-4.37,3.723c-1.458,1.268-2.911,2.542-4.358,3.821c-1.368,1.211-2.731,2.428-4.089,3.65
		c-1.093,0.984-2.181,1.975-3.264,2.969c-0.987,0.906-1.913,1.768-2.777,2.58c-0.282,0.266-0.563,0.531-0.844,0.799
		c-1.596,1.516-2.713,2.607-3.354,3.277c-0.121,0.125-0.241,0.254-0.357,0.385c-1.433,0.455-2.36,0.146-2.783-0.928
		c-0.356-0.904-0.493-2.109-0.411-3.613c0.017-0.293,0.039-0.586,0.069-0.879c0.183-1.793,0.535-3.785,1.058-5.975
		c0.037-0.158,0.075-0.314,0.114-0.471c0.388-1.578,0.799-3.15,1.231-4.716c0.188-0.676,0.379-1.35,0.575-2.022
		c0.22-0.751,0.442-1.501,0.668-2.25c0.178-0.588,0.35-1.146,0.516-1.676c0.155-0.499,0.314-0.997,0.477-1.494
		c0.051-0.156,0.102-0.313,0.151-0.47c0.356-1.124,0.521-1.772,0.491-1.944c-0.001-0.009-0.004-0.019-0.008-0.026
		c-0.471-0.167-0.967-0.252-1.466-0.252c-0.506,0-1.021,0.087-1.546,0.261c-0.377,0.127-0.742,0.287-1.09,0.479
		c-1.433,0.782-2.896,1.938-4.395,3.468c-0.883,0.905-1.726,1.85-2.526,2.829c-0.68,0.828-1.335,1.676-1.967,2.542l-4.491,6.152
		c-0.731,1.002-1.464,2.002-2.197,3.002c-0.699,0.953-1.399,1.906-2.1,2.857c-0.524,0.713-1.069,1.412-1.635,2.092
		c-0.779,0.938-1.537,1.754-2.271,2.449c-0.354,0.338-0.729,0.654-1.122,0.945c-0.82,0.602-1.603,0.971-2.345,1.105
		c-0.148,0.027-0.3,0.041-0.45,0.041c-0.886,0-1.663-0.502-2.333-1.506c-0.02-0.021-0.034-0.045-0.044-0.072
		c-0.036-0.084-0.055-0.225-0.055-0.416c0-0.068,0.003-0.137,0.009-0.205c0.011-0.135,0.034-0.246,0.068-0.334
		c0.007-0.016,0.014-0.031,0.021-0.047c0.093-0.186,0.186-0.373,0.277-0.559c0.312-0.629,0.724-1.469,1.236-2.518
		c0.352-0.719,0.701-1.439,1.05-2.16c0.369-0.762,0.757-1.563,1.163-2.406c0.027-0.057,0.055-0.113,0.082-0.17
		c0.435-0.902,0.874-1.801,1.318-2.697c0.467-0.943,0.939-1.883,1.416-2.82c0.476-0.936,0.951-1.871,1.428-2.807
		c0.451-0.888,0.903-1.775,1.355-2.662c0.392-0.769,0.782-1.538,1.172-2.308c0.366-0.725,0.711-1.409,1.035-2.056
		c0.045-0.092,0.091-0.184,0.137-0.274c0.16-0.32,0.321-0.64,0.485-0.958c0.314-0.613,0.59-1.131,0.827-1.554
		c0.098-0.174,0.196-0.346,0.299-0.517c0.087-0.175,0.177-0.349,0.269-0.521c0.252-0.477,0.558-1.028,0.918-1.654
		c0.061-0.105,0.12-0.21,0.181-0.314c0.571-0.984,1.157-1.961,1.758-2.929c0.209-0.337,0.419-0.673,0.632-1.008
		c0.336-0.529,0.646-1.007,0.931-1.435l0.683-1.024h2.345c0.127,0.412,0.216,0.836,0.264,1.265c0.111,1.028-0.042,2.006-0.459,2.934
		c-0.586,1.303-1.286,2.572-2.1,3.81c-0.534,0.808-1.028,1.642-1.479,2.499c-0.2,0.383-0.391,0.771-0.571,1.163
		c-0.47,1.021-0.553,2.103-0.249,3.241c0.057,0.208,0.123,0.414,0.2,0.615c1.314-1.161,2.634-2.317,3.958-3.467
		c3.717-3.223,6.711-5.713,8.981-7.47c3.027-2.344,5.159-3.679,6.396-4.004c1.237-0.326,1.822,0.162,1.757,1.465
		c-0.059,1.176-0.289,2.724-0.693,4.644c-0.045,0.21-0.09,0.42-0.136,0.629c-0.242,1.104-0.472,2.209-0.687,3.317
		c-0.259,1.33-0.519,2.747-0.778,4.251c-0.268,1.534-0.403,3.088-0.406,4.646c-0.001,1.207,0.086,2.412,0.26,3.607h1.172
		c0.115-0.078,0.229-0.156,0.342-0.238c0.391-0.281,0.928-0.689,1.611-1.227c0.476-0.375,0.952-0.75,1.428-1.123
		c0.518-0.406,1.034-0.814,1.551-1.22c1.074-0.847,2.083-1.628,3.027-2.345c0.217-0.164,0.434-0.328,0.651-0.49
		c0.542-0.405,0.96-0.708,1.253-0.908c0.032-0.022,0.065-0.044,0.098-0.066c0.198-0.162,0.397-0.322,0.598-0.481
		c0.66-0.525,1.502-1.178,2.527-1.959c1.386-1.056,2.769-2.114,4.15-3.174c0.624-0.479,1.252-0.955,1.883-1.426
		c0.679-0.506,1.32-0.975,1.926-1.406c1.104-0.79,1.827-1.288,2.166-1.495c0.011-0.007,0.021-0.013,0.031-0.02
		c0.261-0.195,0.83-0.603,1.709-1.221c0.462-0.324,0.926-0.646,1.392-0.964c0.511-0.35,1.023-0.695,1.538-1.038
		c0.522-0.349,1.048-0.694,1.574-1.037c0.499-0.324,0.999-0.646,1.502-0.964c0.977-0.619,1.692-1.091,2.148-1.416
		c0.888-0.592,1.722-0.888,2.502-0.888c0.077,0,0.155,0.003,0.232,0.009c0.394,0.026,0.78,0.118,1.144,0.272
		c0.356,0.156,0.682,0.378,0.956,0.654c0.553,0.554,0.895,1.302,1.025,2.246c0.033,0.242,0.05,0.485,0.049,0.729
		c0,0.74-0.142,1.541-0.427,2.405c-0.004,0.013-0.009,0.026-0.013,0.039c-1.532,2.873-3.078,5.737-4.64,8.594
		c-1.529,2.8-2.929,5.615-4.198,8.448c-1.27,2.832-2.312,5.746-3.125,8.74s-1.253,6.186-1.318,9.57
		c-0.086,0.053-0.178,0.092-0.275,0.117c-0.241,0.063-0.491,0.023-0.751-0.117c-0.357-0.195-0.699-0.455-1.024-0.781
		s-0.603-0.65-0.83-0.977l-0.342-0.488c-0.7-0.809-1.127-1.816-1.221-2.881c-0.029-0.322-0.044-0.645-0.044-0.967
		c0.001-0.758,0.081-1.514,0.239-2.256c0.227-1.07,0.554-2.117,0.977-3.125c0.203-0.486,0.411-0.971,0.622-1.453
		c0.195-0.445,0.395-0.889,0.599-1.33c0.214-0.533,0.614-1.43,1.2-2.688c0.136-0.293,0.273-0.584,0.411-0.877
		c0.418-0.885,0.841-1.768,1.27-2.649c0.45-0.926,0.906-1.85,1.367-2.771c0.458-0.917,0.918-1.832,1.38-2.747
		c0.434-0.859,0.869-1.719,1.306-2.576c0.192-0.378,0.385-0.756,0.577-1.134c0.415-0.814,0.743-1.462,0.984-1.94
		C156.377,44.263,156.442,44.133,156.508,44.002z M329.011,71.736c-0.009,0.063-0.017,0.125-0.022,0.189
		c-0.134,1.338,0.297,2.35,1.292,3.033c0.195,0.131,0.569,0.342,1.123,0.635c0.002,0,0.003,0.002,0.005,0.002
		c0.451,0.238,0.739,0.381,0.864,0.424c0.019,0.008,0.039,0.012,0.059,0.014c2.845,0.311,5.925,0.426,9.239,0.342
		c1.593-0.041,2.185-0.123,3.774-0.244c5.208-0.395,8.402-0.947,13.576-1.66c0.325-0.045,0.649-0.09,0.975-0.135
		c4.729-0.658,7.451-1.377,12.162-2.16c1.109-0.186,2.22-0.363,3.332-0.533c1.794-0.271,2.493-0.508,4.099-0.707
		c1.451-0.18,1.905-0.338,3.362-0.469c0.008,0,0.015,0,0.022,0c0.146-0.002,0.349-0.01,0.609-0.027
		c0.099-0.006,0.197-0.014,0.296-0.021c0.06-0.004,0.119-0.008,0.179-0.014c0.38-0.023,0.76-0.035,1.14-0.035
		c0.06,0,0.12,0,0.181,0.002c0.38,0.002,0.759,0.018,1.138,0.047c0.072,0.006,0.145,0.012,0.217,0.016
		c0.222,0.018,0.391,0.027,0.507,0.031c0.035,0,0.071,0.002,0.106,0.002c0.521-0.846,0.488-1.627-0.098-2.344
		c-0.503-0.615-1.102-0.918-1.796-0.908c-0.118,0.002-0.235,0.012-0.353,0.029c-1.674-0.117-2.351-0.174-4.028-0.176
		c-3.037,0.002-5.07,0.191-8.083,0.566c-4.716,0.584-7.42,1.252-12.111,2.002c-4.672,0.746-7.36,1.381-12.063,1.904
		c-2.481,0.277-3.976,0.416-6.473,0.416c-2.168,0-4.334-0.105-6.492-0.318c-0.021-0.117-0.038-0.234-0.052-0.352
		c-0.161-1.393,0.133-3.211,0.882-5.459c0.813-2.441,1.985-5.16,3.516-8.154c0.802-1.568,1.628-3.123,2.478-4.664
		c0.927-1.681,1.875-3.349,2.845-5.005c2.019-3.45,4.069-6.934,6.152-10.449c2.038-3.437,4.023-6.903,5.957-10.399
		c0.906-1.638,1.785-3.29,2.637-4.956c0.779-1.523,1.528-3.062,2.246-4.614c0.295-0.638,0.579-1.281,0.854-1.928
		c0.439-1.043,0.823-2.039,1.151-2.987c0.339-0.968,0.631-1.951,0.876-2.947c0.385-1.585,0.479-2.935,0.28-4.048
		c-0.078-0.459-0.222-0.905-0.427-1.323c-0.071-0.133-0.147-0.263-0.228-0.391c-0.23-0.365-0.461-0.634-0.69-0.809
		c-0.132-0.104-0.285-0.178-0.449-0.217c-0.111-0.023-0.226-0.036-0.339-0.036c-0.18,0-0.356,0.031-0.531,0.095
		c-0.159,0.059-0.31,0.138-0.448,0.234c-0.423,0.294-0.781,0.685-1.075,1.172c-0.219,0.366-0.393,0.668-0.521,0.906
		c-0.039,0.072-0.076,0.145-0.113,0.217c-0.115,0.275-0.231,0.55-0.348,0.824c-0.808,1.909-1.579,3.719-2.316,5.431
		c-0.7,1.629-1.407,3.255-2.121,4.879c-1.433,3.255-2.815,6.314-4.15,9.18c-0.33,0.709-0.663,1.417-0.998,2.124
		c-0.965,2.036-1.95,4.063-2.957,6.079c-0.329,0.657-0.658,1.314-0.989,1.971c-1.03,2.048-2.067,4.093-3.112,6.134
		c-0.74,1.447-1.484,2.892-2.233,4.334c-0.798,1.536-1.6,3.07-2.405,4.603c-0.111,0.211-0.223,0.423-0.334,0.634
		c-0.784,1.492-1.615,3.073-2.491,4.743c-0.93,1.771-1.859,3.545-2.79,5.316c-0.188,0.279-0.375,0.559-0.558,0.842
		c-1.096,1.695-1.952,3.27-2.567,4.725c-0.24,0.5-0.456,1.012-0.646,1.533C329.39,69.798,329.148,70.759,329.011,71.736z
		 M421.413,72.712c-0.001,0.072,0.001,0.145,0.003,0.217c0.011,0.328,0.047,0.568,0.107,0.719c0.019,0.053,0.048,0.1,0.084,0.139
		c0.008,0.016,0.016,0.031,0.024,0.045c0.145,0.262,0.479,0.652,1.001,1.176c0.095,0.094,0.19,0.189,0.286,0.283
		c0.292,0.283,0.52,0.492,0.683,0.627c0.05,0.041,0.102,0.078,0.154,0.115l1.172-1.074c0.065-0.064,0.391-0.699,0.977-1.904
		c0.194-0.4,0.391-0.799,0.588-1.197c0.458-0.926,0.979-1.959,1.561-3.1c0.859-1.688,1.706-3.379,2.539-5.078
		c0.088-0.178,0.176-0.357,0.263-0.535c0.523-1.07,0.979-2.012,1.367-2.826c0.142-0.295,0.281-0.59,0.421-0.887
		c0.45-0.943,0.927-1.873,1.429-2.787c1.004-1.82,1.992-3.316,2.967-4.488c0.241-0.293,0.494-0.575,0.758-0.849
		c1.19-1.253,2.628-2.244,4.222-2.912c0.064-0.026,0.13-0.053,0.195-0.079c1.845-0.73,3.993-1.127,6.446-1.189
		c1.824-0.048,3.952-0.027,6.383,0.061c0.997,0.037,1.995,0.081,2.992,0.134l1.073-1.073c-0.439-0.685-1.254-1.249-2.444-1.694
		c-0.431-0.159-0.87-0.295-1.315-0.406c-1.961-0.495-3.95-0.87-5.957-1.123c-2.051-0.261-3.89-0.456-5.517-0.586
		c-1.628-0.13-2.442-0.325-2.442-0.586V40.68l0.635-1.269l1.515-3.028l1.806-3.613c0.191-0.383,0.386-0.764,0.583-1.144
		c0.186-0.356,0.362-0.689,0.53-0.997c0.162-0.298,0.328-0.593,0.499-0.886c0.451-0.886,0.893-1.775,1.326-2.669
		c1.055-2.174,2.045-4.378,2.97-6.609c0.518-1.262,1.101-2.495,1.745-3.697c0.76-1.421,1.629-2.78,2.601-4.065
		c1.641-2.167,3.833-3.853,6.348-4.884c0.14-0.058,0.279-0.112,0.421-0.165c2.024-0.742,4.564-0.969,7.62-0.681
		c0.79,0.076,1.577,0.18,2.359,0.31c0.037,0.072,0.077,0.144,0.12,0.213c0.146,0.238,0.367,0.542,0.661,0.91
		c0.049,0.061,0.099,0.121,0.148,0.182c0.364,0.436,0.755,0.848,1.17,1.233c0.061,0.057,0.122,0.112,0.186,0.165
		c0.419,0.359,0.903,0.635,1.426,0.812c0.213,0.072,0.435,0.109,0.659,0.11c0.184,0,0.366-0.025,0.55-0.076
		c0.191-0.055,0.376-0.132,0.549-0.229c0.052-0.307,0.078-0.618,0.078-0.93c0-0.461-0.059-0.92-0.176-1.365
		c-0.195-0.748-0.521-1.448-0.976-2.099c-0.007-0.008-0.013-0.016-0.019-0.023c-1.58-1.941-3.137-3.417-4.667-4.425
		c-0.843-0.57-1.765-1.013-2.737-1.314c-0.124-0.037-0.249-0.071-0.375-0.104c-2.275-0.594-4.478-0.413-6.607,0.544
		c-0.254,0.114-0.505,0.236-0.751,0.365c-1.979,1.032-3.893,2.603-5.743,4.713c-0.798,0.911-1.565,1.849-2.302,2.811
		c-1.304,1.705-2.523,3.473-3.655,5.295c-1.911,3.07-3.671,6.231-5.273,9.474c-1.628,3.287-3.125,6.363-4.491,9.228
		c-0.409,0.857-0.822,1.713-1.239,2.566c-0.398,0.815-0.783,1.592-1.153,2.328c-0.417,0.83-0.84,1.656-1.271,2.479
		c-0.017,0.032-0.033,0.063-0.05,0.095c-1.053,1.996-1.964,3.25-2.733,3.764c-0.159,0.105-0.532,0.275-1.121,0.51
		c-0.146,0.059-0.294,0.116-0.441,0.173c-0.442,0.17-0.886,0.337-1.33,0.501c-0.483,0.178-0.968,0.354-1.452,0.525
		c-0.489,0.173-0.978,0.348-1.466,0.523c-0.456,0.166-0.911,0.333-1.366,0.501c-0.056,0.021-0.111,0.041-0.166,0.062
		c-0.625,0.231-1.059,0.39-1.3,0.475c-0.049,0.018-0.098,0.034-0.146,0.05c-0.146,0.098-0.385,0.214-0.714,0.349
		c-0.119,0.048-0.239,0.095-0.36,0.14c-0.271,0.102-0.539,0.208-0.806,0.318c-0.286,0.118-0.571,0.24-0.854,0.366
		s-0.568,0.248-0.854,0.365c-0.267,0.11-0.535,0.216-0.805,0.317c-0.089,0.033-0.177,0.066-0.266,0.099
		c-0.379,0.142-0.649,0.239-0.81,0.292c-0.13,0.195-0.162,0.473-0.098,0.83c0.065,0.358,0.146,0.716,0.244,1.074
		c0.041,0.153,0.092,0.303,0.15,0.45c0.066,0.166,0.146,0.326,0.241,0.478c0.034,0.057,0.073,0.11,0.115,0.161
		c0.049,0.057,0.098,0.103,0.148,0.139c0.079,0.059,0.175,0.091,0.273,0.092h9.276l-8.203,18.847
		C421.477,71.769,421.413,72.126,421.413,72.712z M222.58,72.562c0.653,0.93,1.46,1.74,2.385,2.396
		c0.114,0.074,0.235,0.133,0.362,0.18c0.422,0.156,1.033,0.26,1.835,0.309c0.091,0.006,0.182,0.01,0.272,0.014
		c0.642,0.029,1.339,0.023,2.093-0.014c0.449-0.023,0.898-0.057,1.346-0.098c0.444-0.041,0.889-0.09,1.331-0.146
		c1.026-0.131,2.048-0.293,3.063-0.488c0.048-0.01,0.097-0.02,0.145-0.029c0.724-0.141,1.406-0.297,2.048-0.467
		c0.628-0.166,1.249-0.359,1.86-0.578c0.277-0.1,0.552-0.209,0.822-0.326c0.377-0.164,0.721-0.338,1.029-0.52
		c0.312-0.182,0.606-0.389,0.883-0.619c0.093-0.078,0.182-0.164,0.265-0.252c0.436-0.475,0.542-0.961,0.321-1.457
		c-0.208-0.012-0.416-0.018-0.623-0.018c-0.964,0-2.058,0.119-3.283,0.359c-1.526,0.297-3.057,0.574-4.59,0.83
		c-0.291,0.049-0.583,0.094-0.874,0.137c-1.217,0.184-2.44,0.316-3.667,0.4c-1.465,0.098-2.653-0.082-3.564-0.537
		c-0.062-0.031-0.12-0.066-0.177-0.105c-0.59-0.414-0.851-1.293-0.783-2.637c0.008-0.145,0.019-0.289,0.032-0.432
		c0.002-0.02,0.004-0.039,0.006-0.057c0.115-1.176,0.395-2.557,0.837-4.148c0.221-0.785,0.461-1.564,0.72-2.338
		c0.467-1.4,1.003-2.885,1.607-4.451c0.563-1.456,1.151-2.902,1.762-4.338c0.172-0.404,0.344-0.809,0.518-1.212
		c1.253-2.918,2.545-5.817,3.877-8.7c1.559-3.378,3.17-6.73,4.834-10.058l4.541-9.082c1.367-2.735,2.556-5.079,3.564-7.032
		c0.174-0.335,0.346-0.671,0.517-1.007c0.521-1.025,0.909-1.818,1.163-2.378c0.078-0.172,0.153-0.346,0.225-0.521
		c-0.018-0.05-0.036-0.1-0.054-0.148c-0.406-1.099-0.82-1.885-1.242-2.359c-0.144-0.17-0.317-0.313-0.511-0.421
		c-0.479-0.252-0.956-0.271-1.435-0.055c-0.148,0.067-0.29,0.151-0.421,0.25c-0.203,0.151-0.394,0.32-0.568,0.506
		c-0.211,0.221-0.418,0.477-0.62,0.768c-0.207,0.297-0.396,0.605-0.569,0.923c-0.563,1.029-1.068,2.089-1.514,3.174
		c-0.22,0.532-0.436,1.065-0.647,1.6c-0.194,0.49-0.386,0.983-0.573,1.477c-0.271,0.716-0.496,1.253-0.674,1.613
		c-0.048,0.099-0.1,0.196-0.156,0.291c-0.014,0.027-0.027,0.056-0.042,0.083c-0.172,0.347-0.5,1.013-0.981,1.998
		c-0.131,0.267-0.262,0.533-0.393,0.8c-0.388,0.793-0.774,1.587-1.159,2.381c-0.413,0.85-0.823,1.7-1.233,2.551
		c-0.408,0.849-0.819,1.694-1.233,2.539c-0.383,0.783-0.77,1.564-1.159,2.345l-1.416,2.832c-0.071,0.142-0.143,0.282-0.215,0.424
		c-0.628,1.231-1.451,2.751-2.471,4.556c-0.592,1.051-1.17,2.108-1.734,3.174c-0.606,1.149-1.201,2.305-1.781,3.468
		c-1.224,2.452-2.332,4.962-3.32,7.519c-0.325,0.836-0.623,1.682-0.894,2.538c-0.525,1.645-0.929,3.326-1.206,5.031
		c-0.391,2.441-0.31,4.703,0.244,6.787C221.563,70.777,221.996,71.718,222.58,72.562z M64.602,67.421
		c-0.839,2.504-1.649,5.016-2.431,7.537c0.261,0.65,0.748,1.041,1.465,1.172c0.105,0.02,0.211,0.035,0.317,0.047
		c0.583,0.07,1.096,0.021,1.538-0.145c3.581-6.314,6.363-11.93,8.349-16.846c0.188-0.465,0.375-0.932,0.559-1.398
		c1.674-4.267,2.79-7.723,3.349-10.369c0.072-0.34,0.14-0.682,0.201-1.023c0.421-2.335,0.402-3.817-0.055-4.445
		c-0.449-0.618-1.248-0.22-2.397,1.193c-0.2,0.248-0.395,0.501-0.581,0.759c-1.099,1.514-2.398,3.879-3.899,7.096
		c-0.54,1.159-1.063,2.326-1.569,3.501C67.948,57.968,66.333,62.275,64.602,67.421z M396.401,67.421
		c-0.839,2.504-1.649,5.016-2.431,7.537c0.261,0.65,0.749,1.041,1.465,1.172c0.105,0.02,0.211,0.035,0.317,0.047
		c0.583,0.07,1.096,0.021,1.537-0.145c3.582-6.314,6.365-11.93,8.351-16.846c0.188-0.465,0.374-0.932,0.557-1.398
		c1.675-4.267,2.791-7.723,3.35-10.369c0.072-0.34,0.139-0.682,0.201-1.023c0.421-2.335,0.403-3.817-0.055-4.445
		c-0.448-0.618-1.248-0.22-2.397,1.193c-0.201,0.248-0.395,0.501-0.581,0.759c-1.099,1.514-2.398,3.879-3.9,7.096
		c-0.539,1.159-1.062,2.326-1.567,3.501C399.746,57.968,398.132,62.275,396.401,67.421z M295.031,63.704
		c-1.852,0.498-4.146,1.141-6.883,1.928c-0.384,0.109-0.769,0.219-1.153,0.328c-2.777,0.781-5.566,1.52-8.368,2.211
		c-3.288,0.814-6.511,1.465-9.668,1.953c-0.27,0.041-0.539,0.082-0.81,0.119c-2.141,0.293-4.053,0.406-5.736,0.34
		c-0.505-0.02-1.009-0.059-1.511-0.117c-0.099-0.057-0.195-0.115-0.292-0.174c-1.672-1.027-2.507-2.141-2.507-3.344
		c0-0.197,0.022-0.393,0.064-0.584c0.325-1.498,1.367-3.012,3.125-4.541c1.044-0.908,2.26-1.822,3.647-2.742
		c1.009-0.666,2.04-1.299,3.091-1.896c2.714-1.551,5.448-3.065,8.203-4.542c1.308-0.7,2.614-1.404,3.919-2.111
		c1.186-0.644,2.37-1.291,3.552-1.941c0.421-0.231,0.837-0.47,1.249-0.716c1.026-0.615,1.851-1.185,2.474-1.71
		c0.293-0.243,0.567-0.51,0.818-0.796c0.08-0.099,0.153-0.202,0.218-0.311c0.172-0.282,0.343-0.655,0.515-1.118
		c0.087-0.238,0.169-0.479,0.244-0.721c0.17-0.547,0.316-1.101,0.439-1.66c0.136-0.614,0.25-1.232,0.342-1.854
		c0.195-1.303,0.31-2.637,0.342-4.004c0.003-0.15,0.005-0.301,0.006-0.45c0-0.592-0.029-1.151-0.087-1.678
		c-0.054-0.501-0.141-0.997-0.261-1.485c-0.261-1.042-0.7-1.807-1.318-2.295c-0.118-0.094-0.247-0.172-0.386-0.232
		c-0.563-0.245-1.266-0.185-2.104,0.184c-1.219,0.468-2.408,1.009-3.563,1.618c-1.916,1.019-3.745,2.191-5.47,3.509
		c-2.982,2.263-5.835,4.691-8.545,7.274c-2.687,2.556-5.276,5.21-7.764,7.959c-0.161,0.179-0.322,0.356-0.483,0.534
		c-2.248,2.484-4.285,4.699-6.108,6.644c-0.017,0.051-0.032,0.102-0.049,0.152c-0.505,1.623-0.864,3.289-1.074,4.975
		c-0.093,0.721-0.14,1.445-0.141,2.17c-0.002,0.992,0.094,1.984,0.287,2.957c0.325,1.627,0.993,3.109,2.002,4.443
		c0.626,0.816,1.406,1.5,2.296,2.016c0.68,0.396,1.399,0.719,2.147,0.963c1.743,0.6,4.011,0.846,6.802,0.738
		c0.565-0.023,1.13-0.057,1.694-0.104c0.903-0.074,1.805-0.17,2.704-0.287c2.811-0.371,5.593-0.928,8.331-1.666
		c0.702-0.188,1.4-0.387,2.097-0.598c2.896-0.867,5.721-1.957,8.45-3.26c0.87-0.414,1.72-0.871,2.547-1.367
		c0.936-0.564,1.766-1.15,2.489-1.754c0.74-0.607,1.41-1.297,1.995-2.055l-1.172-1.074
		C295.456,63.589,295.243,63.646,295.031,63.704z M283.07,37.653c1.4,0.383,2.101,0.982,2.101,1.8c0,0.019,0,0.037-0.001,0.056
		c-0.023,0.612-0.285,1.292-0.784,2.039c-0.21,0.31-0.437,0.607-0.681,0.891c-0.59,0.692-1.313,1.391-2.171,2.095
		c-0.546,0.446-1.108,0.871-1.687,1.274c-1.636,1.144-3.349,2.172-5.127,3.076c-0.679,0.347-1.369,0.671-2.068,0.972
		c-1.013,0.438-2.05,0.814-3.107,1.128c-1.66,0.488-3.012,0.635-4.053,0.439c-0.116,0,0.156-0.298,0.816-0.892
		c0.085-0.078,0.171-0.155,0.258-0.231c0.283-0.25,0.568-0.498,0.855-0.744c0.306-0.263,0.632-0.54,0.979-0.831
		c0.444-0.372,0.891-0.742,1.339-1.109c0.664-0.546,1.332-1.087,2.002-1.624c0.729-0.586,1.462-1.167,2.197-1.745
		c0.738-0.582,1.479-1.16,2.222-1.734c0.689-0.532,1.381-1.062,2.075-1.587c0.065-0.05,0.132-0.1,0.198-0.149
		c0.919-0.692,1.735-1.29,2.447-1.792c0.24-0.168,0.481-0.335,0.724-0.5c0.118-0.08,0.238-0.16,0.357-0.239
		C282.645,37.794,283.014,37.597,283.07,37.653z M507.202,63.704c-1.852,0.498-4.146,1.141-6.884,1.928
		c-0.384,0.109-0.768,0.219-1.152,0.328c-2.778,0.781-5.568,1.52-8.369,2.211c-3.287,0.814-6.51,1.465-9.668,1.953
		c-0.27,0.041-0.54,0.082-0.811,0.119c-2.141,0.293-4.053,0.406-5.735,0.34c-0.505-0.02-1.009-0.059-1.511-0.117
		c-0.098-0.057-0.195-0.115-0.292-0.174c-1.671-1.027-2.507-2.141-2.507-3.344c0.001-0.197,0.022-0.393,0.064-0.584
		c0.326-1.498,1.367-3.012,3.125-4.541c1.044-0.908,2.26-1.822,3.647-2.742c1.01-0.666,2.04-1.299,3.092-1.896
		c2.713-1.551,5.447-3.065,8.202-4.542c1.309-0.7,2.614-1.404,3.918-2.111c1.187-0.644,2.37-1.291,3.553-1.941
		c0.421-0.231,0.838-0.47,1.25-0.716c1.025-0.615,1.849-1.185,2.472-1.71c0.294-0.243,0.567-0.51,0.819-0.796
		c0.08-0.099,0.152-0.202,0.218-0.311c0.172-0.282,0.344-0.655,0.515-1.118c0.088-0.238,0.169-0.479,0.244-0.721
		c0.17-0.547,0.316-1.101,0.439-1.66c0.135-0.614,0.249-1.232,0.342-1.854c0.195-1.303,0.31-2.637,0.342-4.004
		c0.004-0.15,0.006-0.301,0.006-0.45c0-0.592-0.028-1.151-0.087-1.678c-0.054-0.501-0.141-0.997-0.261-1.485
		c-0.26-1.042-0.699-1.807-1.318-2.295c-0.117-0.094-0.247-0.172-0.385-0.232c-0.564-0.245-1.267-0.185-2.105,0.184
		c-1.219,0.468-2.409,1.009-3.563,1.618c-1.916,1.019-3.746,2.191-5.47,3.509c-2.982,2.263-5.835,4.691-8.544,7.274
		c-2.687,2.556-5.276,5.21-7.765,7.959c-0.16,0.179-0.321,0.356-0.482,0.534c-2.25,2.484-4.286,4.699-6.109,6.644
		c-0.016,0.051-0.032,0.102-0.048,0.152c-0.505,1.623-0.864,3.289-1.075,4.975c-0.093,0.721-0.14,1.445-0.141,2.17
		c-0.002,0.992,0.095,1.984,0.288,2.957c0.325,1.627,0.992,3.109,2.001,4.443c0.626,0.816,1.406,1.5,2.297,2.016
		c0.68,0.396,1.399,0.719,2.146,0.963c1.744,0.6,4.011,0.846,6.803,0.738c0.564-0.023,1.13-0.057,1.693-0.104
		c0.903-0.074,1.806-0.17,2.704-0.287c2.811-0.371,5.594-0.928,8.331-1.666c0.702-0.188,1.401-0.387,2.097-0.598
		c2.896-0.867,5.722-1.957,8.45-3.26c0.87-0.414,1.72-0.871,2.546-1.367c0.937-0.564,1.767-1.15,2.489-1.754
		c0.741-0.607,1.41-1.297,1.996-2.055l-1.172-1.074C507.626,63.589,507.414,63.646,507.202,63.704z M495.24,37.653
		c1.4,0.383,2.101,0.982,2.101,1.8c0,0.019,0,0.037-0.001,0.056c-0.023,0.612-0.285,1.292-0.784,2.039
		c-0.209,0.31-0.437,0.607-0.681,0.891c-0.59,0.692-1.313,1.391-2.17,2.095c-0.546,0.446-1.109,0.871-1.688,1.274
		c-1.635,1.144-3.349,2.172-5.127,3.076c-0.679,0.347-1.368,0.671-2.068,0.972c-1.013,0.438-2.05,0.814-3.107,1.128
		c-1.66,0.488-3.011,0.635-4.052,0.439c-0.117,0,0.155-0.298,0.815-0.892c0.086-0.078,0.172-0.155,0.258-0.231
		c0.283-0.25,0.568-0.498,0.855-0.744c0.306-0.263,0.633-0.54,0.979-0.831c0.444-0.372,0.892-0.742,1.34-1.109
		c0.664-0.546,1.331-1.087,2.002-1.624c0.729-0.586,1.462-1.167,2.196-1.745c0.738-0.582,1.479-1.16,2.223-1.734
		c0.688-0.532,1.38-1.062,2.074-1.587c0.066-0.05,0.133-0.1,0.198-0.149c0.92-0.692,1.735-1.29,2.448-1.792
		c0.239-0.168,0.48-0.335,0.723-0.5c0.119-0.08,0.238-0.16,0.358-0.239C494.815,37.794,495.184,37.597,495.24,37.653z
		 M79.176,27.692c0.021,0.101,0.049,0.198,0.086,0.293c0.586,1.498,1.221,2.394,1.904,2.687c0.116,0.05,0.236,0.091,0.359,0.122
		c0.338,0.085,0.654,0.075,0.949-0.031c0.181-0.066,0.349-0.164,0.498-0.287c0.334-0.271,0.607-0.629,0.82-1.074
		c0.126-0.267,0.228-0.544,0.303-0.83c0.122-0.455,0.184-0.897,0.184-1.324c0.001-0.36-0.045-0.72-0.135-1.068
		c-0.115-0.452-0.356-0.861-0.696-1.181c-0.229-0.213-0.488-0.392-0.769-0.528c-0.632-0.315-1.497-0.333-2.596-0.054
		c-0.277,0.071-0.552,0.154-0.822,0.25c-0.131,0.195-0.195,0.716-0.195,1.562C79.066,26.862,79.102,27.35,79.176,27.692z
		 M410.975,27.692c0.021,0.101,0.049,0.198,0.085,0.293c0.586,1.498,1.221,2.394,1.904,2.687c0.116,0.05,0.237,0.091,0.36,0.122
		c0.337,0.085,0.653,0.075,0.947-0.031c0.182-0.066,0.351-0.164,0.499-0.287c0.334-0.271,0.607-0.629,0.821-1.074
		c0.126-0.267,0.227-0.544,0.302-0.83c0.123-0.455,0.185-0.897,0.185-1.324c0.001-0.36-0.045-0.72-0.136-1.068
		c-0.114-0.452-0.356-0.861-0.696-1.181c-0.229-0.213-0.487-0.392-0.769-0.528c-0.631-0.315-1.496-0.333-2.595-0.054
		c-0.278,0.071-0.553,0.154-0.823,0.25c-0.13,0.195-0.195,0.716-0.195,1.562C410.865,26.862,410.902,27.35,410.975,27.692z
		 M20.268,76.956c0.186,0.001,0.373-0.001,0.56-0.004c4.203-0.068,8.38-0.683,12.423-1.837c4.141-1.168,8.072-2.807,11.792-4.917
		c1.479-0.838,2.901-1.765,4.26-2.787c1.759-1.313,3.37-2.819,4.797-4.484c0.427-0.505,0.83-1.027,1.208-1.562
		c1.565-2.179,2.612-4.688,3.061-7.33c0.1-0.607,0.15-1.218,0.151-1.831c0.004-2.604-0.889-5.236-2.679-7.904
		c-0.863-1.264-1.855-2.435-2.959-3.493c-2.166-2.116-5.003-4.218-8.515-6.306c-2.048-1.207-4.162-2.3-6.33-3.275
		c-4.488-2.045-9.853-4.013-16.098-5.907c-1.889-0.652-2.752-1.438-2.587-2.351c0.04-0.208,0.107-0.416,0.2-0.609
		c0.357-0.745,1.123-1.551,2.297-2.418c0.5-0.364,1.015-0.708,1.544-1.027c0.642-0.394,1.352-0.792,2.129-1.192
		c0.819-0.42,1.652-0.818,2.493-1.194c1.006-0.449,2.016-0.886,3.033-1.308c1.813-0.752,3.64-1.47,5.482-2.149
		c3.093-1.146,6.208-2.231,9.344-3.261c1.521-0.499,3.045-0.985,4.574-1.46c1.406-0.434,2.817-0.855,4.232-1.264
		c1.691-0.485,3.224-0.921,4.597-1.307c0.766-0.214,1.533-0.427,2.3-0.638c1.538-0.42,2.601-0.693,3.191-0.814
		c0.107-0.024,0.22-0.043,0.331-0.062c0.394-1.628-0.028-2.737-1.266-3.326c-0.26-0.123-0.53-0.224-0.807-0.302
		c-0.963-0.283-2.169-0.389-3.618-0.315c-0.318,0.018-0.637,0.041-0.953,0.07c-0.45,0.044-0.897,0.098-1.345,0.161
		c-1.016,0.143-2.092,0.344-3.233,0.601c-1.207,0.274-2.404,0.588-3.589,0.938c-0.784,0.23-1.565,0.468-2.341,0.717
		c-2.444,0.783-4.861,1.647-7.248,2.592c-3.28,1.292-6.497,2.739-9.639,4.335c-1.498,0.759-2.974,1.558-4.43,2.39
		c-1.32,0.755-2.618,1.552-3.89,2.389c-0.567,0.373-1.127,0.759-1.676,1.159c-1.632,1.187-2.968,2.345-4.004,3.477
		c-0.099,0.107-0.195,0.216-0.289,0.327c-1.16,1.361-1.62,2.554-1.38,3.582c0.368,0.433,0.77,0.833,1.204,1.199
		c0.492,0.424,1.056,0.843,1.688,1.258c0.646,0.418,1.31,0.809,1.992,1.167c1.161,0.616,2.333,1.209,3.518,1.779
		c1.292,0.623,2.597,1.224,3.909,1.804c0.691,0.306,1.383,0.611,2.076,0.914c2.17,0.948,4.344,1.89,6.523,2.817
		c0.465,0.197,0.93,0.399,1.392,0.605c2.406,1.064,4.763,2.236,7.061,3.516c1.11,0.616,2.197,1.279,3.256,1.986
		c1.25,0.831,2.445,1.74,3.58,2.72c0.068,0.055,0.135,0.116,0.199,0.173c1.811,1.617,3.013,3.354,3.608,5.21
		c0.615,1.925,0.416,4.01-0.598,6.256c-0.063,0.145-0.131,0.284-0.2,0.421c-1.079,2.135-3.118,4.45-6.119,6.954
		c-0.709,0.561-1.434,1.106-2.169,1.626c-2.106,1.5-4.347,2.798-6.691,3.884c-3.034,1.395-6.165,2.434-9.393,3.117
		c-3.27,0.683-6.591,1.102-9.927,1.25c-1.562,0.073-3.124,0.109-4.685,0.104c-1.927-0.003-3.855-0.059-5.779-0.167
		c-0.039-0.017-0.079-0.03-0.117-0.046c-0.585-0.236-1.183-0.528-1.794-0.878c-0.603-0.348-1.188-0.728-1.752-1.137
		c-0.875-0.627-1.615-1.196-2.227-1.702c-0.256-0.211-0.505-0.426-0.751-0.648c-1.092,0.513-1.539,1.132-1.342,1.851
		c0.03,0.103,0.067,0.203,0.115,0.299c0.266,0.534,0.653,1.055,1.164,1.563c0.323,0.319,0.668,0.613,1.033,0.883
		c1.042,0.786,2.166,1.474,3.37,2.063c1.205,0.587,1.971,0.947,2.297,1.078C12.877,76.293,16.356,76.95,20.268,76.956z
		 M14.671,55.123c0.021,0.098,0.049,0.193,0.084,0.288c0.573,1.473,1.196,2.356,1.868,2.646c0.112,0.049,0.234,0.087,0.354,0.119
		c0.332,0.084,0.642,0.075,0.931-0.03c0.18-0.062,0.346-0.159,0.492-0.28c0.329-0.265,0.6-0.618,0.811-1.057
		c0.124-0.26,0.222-0.534,0.298-0.813c0.12-0.449,0.182-0.885,0.184-1.303c-0.001-0.356-0.042-0.707-0.132-1.053
		c-0.112-0.444-0.351-0.846-0.683-1.164c-0.226-0.207-0.48-0.383-0.755-0.519c-0.619-0.313-1.472-0.331-2.553-0.057
		c-0.273,0.069-0.544,0.152-0.81,0.245c-0.128,0.191-0.192,0.706-0.194,1.534C14.564,54.304,14.599,54.784,14.671,55.123z
		 M31.41,48.47c0.021,0.098,0.049,0.194,0.083,0.287c0.574,1.476,1.197,2.358,1.868,2.648c0.113,0.048,0.234,0.087,0.354,0.118
		c0.332,0.086,0.643,0.076,0.932-0.029c0.18-0.062,0.347-0.162,0.492-0.281c0.329-0.266,0.599-0.617,0.811-1.056
		c0.124-0.261,0.221-0.535,0.297-0.813c0.121-0.451,0.182-0.886,0.183-1.306c0-0.354-0.042-0.707-0.131-1.051
		c-0.112-0.446-0.352-0.846-0.683-1.163c-0.226-0.208-0.48-0.383-0.756-0.521c-0.618-0.313-1.472-0.33-2.552-0.057
		c-0.273,0.07-0.545,0.154-0.81,0.244c-0.129,0.193-0.193,0.708-0.194,1.536C31.303,47.651,31.338,48.132,31.41,48.47z"/>
</g>
</svg>
